<svg width="312" height="82" viewBox="0 0 312 82" fill="none" xmlns="http://www.w3.org/2000/svg">
<path d="M122.273 34.3906C122.024 33.5265 121.675 32.763 121.225 32.1001C120.775 31.4254 120.225 30.8572 119.574 30.3956C118.935 29.9221 118.201 29.5611 117.372 29.3125C116.555 29.0639 115.65 28.9396 114.656 28.9396C112.797 28.9396 111.164 29.4013 109.755 30.3246C108.358 31.2479 107.269 32.5914 106.488 34.3551C105.707 36.107 105.316 38.2495 105.316 40.7827C105.316 43.3158 105.701 45.4702 106.47 47.2457C107.24 49.0213 108.329 50.3767 109.737 51.3118C111.146 52.2351 112.809 52.6967 114.727 52.6967C116.467 52.6967 117.952 52.389 119.183 51.7734C120.426 51.1461 121.373 50.2642 122.024 49.1278C122.687 47.9915 123.018 46.648 123.018 45.0973L124.581 45.3281H115.206V39.5398H130.423V44.1207C130.423 47.3168 129.748 50.063 128.398 52.3594C127.049 54.6439 125.191 56.4077 122.823 57.6506C120.456 58.8816 117.745 59.4972 114.691 59.4972C111.282 59.4972 108.287 58.7455 105.707 57.2422C103.126 55.727 101.114 53.5786 99.6697 50.7969C98.2375 48.0033 97.5213 44.6889 97.5213 40.8537C97.5213 37.9062 97.9474 35.2784 98.7997 32.9702C99.6638 30.6501 100.871 28.6851 102.422 27.0753C103.973 25.4654 105.778 24.2403 107.837 23.3999C109.897 22.5594 112.128 22.1392 114.531 22.1392C116.591 22.1392 118.509 22.4411 120.284 23.0447C122.06 23.6366 123.634 24.477 125.007 25.5661C126.392 26.6551 127.522 27.9512 128.398 29.4545C129.274 30.946 129.837 32.5914 130.085 34.3906H122.273ZM145.635 59.5327C142.829 59.5327 140.414 58.9645 138.39 57.8281C136.378 56.6799 134.827 55.0582 133.738 52.9631C132.649 50.8561 132.105 48.3643 132.105 45.4879C132.105 42.6825 132.649 40.2204 133.738 38.1016C134.827 35.9827 136.36 34.3314 138.337 33.1477C140.326 31.964 142.658 31.3722 145.333 31.3722C147.132 31.3722 148.807 31.6622 150.358 32.2422C151.92 32.8104 153.281 33.6686 154.441 34.8168C155.613 35.965 156.525 37.4091 157.176 39.1491C157.827 40.8774 158.152 42.9015 158.152 45.2216V47.299H135.123V42.6115H151.032C151.032 41.5225 150.796 40.5578 150.322 39.7173C149.849 38.8769 149.192 38.2199 148.351 37.7464C147.523 37.2611 146.558 37.0185 145.457 37.0185C144.309 37.0185 143.291 37.2848 142.403 37.8175C141.527 38.3383 140.841 39.0426 140.343 39.9304C139.846 40.8063 139.592 41.7829 139.58 42.8601V47.3168C139.58 48.6662 139.828 49.8321 140.326 50.8146C140.835 51.7971 141.551 52.5547 142.474 53.0874C143.397 53.62 144.492 53.8864 145.759 53.8864C146.599 53.8864 147.369 53.768 148.067 53.5312C148.765 53.2945 149.363 52.9394 149.86 52.4659C150.358 51.9924 150.736 51.4124 150.997 50.7259L157.993 51.1875C157.637 52.8684 156.909 54.3362 155.809 55.5909C154.72 56.8338 153.311 57.8045 151.583 58.5028C149.866 59.1894 147.884 59.5327 145.635 59.5327ZM182.93 39.5043L176.005 39.9304C175.887 39.3385 175.633 38.8059 175.242 38.3324C174.851 37.8471 174.336 37.4624 173.697 37.1783C173.07 36.8823 172.318 36.7344 171.442 36.7344C170.27 36.7344 169.282 36.983 168.477 37.4801C167.672 37.9654 167.27 38.6165 167.27 39.4332C167.27 40.0843 167.53 40.6347 168.051 41.0845C168.572 41.5343 169.465 41.8954 170.732 42.1676L175.668 43.1619C178.32 43.7064 180.296 44.5824 181.598 45.7898C182.901 46.9972 183.552 48.5833 183.552 50.5483C183.552 52.3357 183.025 53.9041 181.971 55.2536C180.93 56.603 179.497 57.6565 177.674 58.4141C175.863 59.1598 173.774 59.5327 171.407 59.5327C167.796 59.5327 164.92 58.781 162.777 57.2777C160.647 55.7625 159.398 53.7029 159.031 51.0987L166.471 50.7081C166.696 51.8089 167.24 52.6494 168.104 53.2294C168.968 53.7976 170.075 54.0817 171.424 54.0817C172.75 54.0817 173.816 53.8272 174.62 53.3182C175.437 52.7973 175.852 52.1286 175.863 51.3118C175.852 50.6252 175.562 50.063 174.993 49.625C174.425 49.1752 173.549 48.8319 172.366 48.5952L167.643 47.6541C164.979 47.1214 162.996 46.1982 161.694 44.8842C160.404 43.5703 159.759 41.8954 159.759 39.8594C159.759 38.1075 160.232 36.5982 161.179 35.3317C162.138 34.0651 163.482 33.0885 165.21 32.402C166.95 31.7154 168.986 31.3722 171.318 31.3722C174.763 31.3722 177.473 32.1001 179.45 33.5561C181.439 35.0121 182.599 36.9948 182.93 39.5043ZM185.465 69.2273V31.7273H192.922V36.3082H193.259C193.591 35.5743 194.07 34.8286 194.698 34.071C195.337 33.3016 196.165 32.6624 197.183 32.1534C198.213 31.6326 199.492 31.3722 201.019 31.3722C203.007 31.3722 204.842 31.893 206.523 32.9347C208.204 33.9645 209.547 35.5211 210.553 37.6044C211.559 39.6759 212.063 42.2741 212.063 45.3991C212.063 48.4413 211.571 51.0099 210.589 53.1051C209.618 55.1884 208.292 56.7687 206.612 57.8459C204.943 58.9112 203.072 59.4439 201.001 59.4439C199.533 59.4439 198.284 59.2012 197.254 58.7159C196.236 58.2306 195.402 57.621 194.751 56.8871C194.1 56.1413 193.603 55.3897 193.259 54.6321H193.028V69.2273H185.465ZM192.869 45.3636C192.869 46.9853 193.094 48.3999 193.543 49.6072C193.993 50.8146 194.644 51.7557 195.497 52.4304C196.349 53.0933 197.385 53.4247 198.604 53.4247C199.835 53.4247 200.876 53.0874 201.729 52.4126C202.581 51.7261 203.226 50.7791 203.664 49.5717C204.114 48.3525 204.339 46.9498 204.339 45.3636C204.339 43.7893 204.12 42.4044 203.682 41.2088C203.244 40.0133 202.599 39.0781 201.747 38.4034C200.894 37.7287 199.847 37.3913 198.604 37.3913C197.373 37.3913 196.331 37.7169 195.479 38.3679C194.638 39.0189 193.993 39.9422 193.543 41.1378C193.094 42.3333 192.869 43.742 192.869 45.3636ZM226.684 59.5327C223.879 59.5327 221.464 58.9645 219.44 57.8281C217.428 56.6799 215.877 55.0582 214.788 52.9631C213.699 50.8561 213.154 48.3643 213.154 45.4879C213.154 42.6825 213.699 40.2204 214.788 38.1016C215.877 35.9827 217.41 34.3314 219.387 33.1477C221.375 31.964 223.707 31.3722 226.382 31.3722C228.182 31.3722 229.857 31.6622 231.407 32.2422C232.97 32.8104 234.331 33.6686 235.491 34.8168C236.663 35.965 237.574 37.4091 238.225 39.1491C238.876 40.8774 239.202 42.9015 239.202 45.2216V47.299H216.173V42.6115H232.082C232.082 41.5225 231.845 40.5578 231.372 39.7173C230.898 38.8769 230.241 38.2199 229.401 37.7464C228.572 37.2611 227.607 37.0185 226.507 37.0185C225.358 37.0185 224.34 37.2848 223.453 37.8175C222.577 38.3383 221.89 39.0426 221.393 39.9304C220.896 40.8063 220.641 41.7829 220.629 42.8601V47.3168C220.629 48.6662 220.878 49.8321 221.375 50.8146C221.884 51.7971 222.6 52.5547 223.524 53.0874C224.447 53.62 225.542 53.8864 226.808 53.8864C227.649 53.8864 228.418 53.768 229.117 53.5312C229.815 53.2945 230.413 52.9394 230.91 52.4659C231.407 51.9924 231.786 51.4124 232.046 50.7259L239.042 51.1875C238.687 52.8684 237.959 54.3362 236.858 55.5909C235.769 56.8338 234.361 57.8045 232.632 58.5028C230.916 59.1894 228.933 59.5327 226.684 59.5327ZM248.852 43.233V59H241.288V31.7273H248.497V36.5391H248.816C249.42 34.9529 250.432 33.6982 251.853 32.7749C253.273 31.8397 254.995 31.3722 257.02 31.3722C258.913 31.3722 260.565 31.7865 261.973 32.6151C263.382 33.4437 264.477 34.6274 265.258 36.1662C266.039 37.6932 266.43 39.5161 266.43 41.6349V59H258.866V42.9844C258.878 41.3153 258.452 40.0133 257.588 39.0781C256.724 38.1312 255.534 37.6577 254.019 37.6577C253.001 37.6577 252.101 37.8767 251.32 38.3146C250.551 38.7526 249.947 39.3918 249.509 40.2322C249.083 41.0608 248.864 42.0611 248.852 43.233ZM292.233 39.5043L285.309 39.9304C285.19 39.3385 284.936 38.8059 284.545 38.3324C284.154 37.8471 283.64 37.4624 283 37.1783C282.373 36.8823 281.621 36.7344 280.745 36.7344C279.573 36.7344 278.585 36.983 277.78 37.4801C276.975 37.9654 276.573 38.6165 276.573 39.4332C276.573 40.0843 276.833 40.6347 277.354 41.0845C277.875 41.5343 278.769 41.8954 280.035 42.1676L284.971 43.1619C287.623 43.7064 289.6 44.5824 290.902 45.7898C292.204 46.9972 292.855 48.5833 292.855 50.5483C292.855 52.3357 292.328 53.9041 291.274 55.2536C290.233 56.603 288.801 57.6565 286.978 58.4141C285.167 59.1598 283.077 59.5327 280.71 59.5327C277.1 59.5327 274.223 58.781 272.081 57.2777C269.95 55.7625 268.701 53.7029 268.334 51.0987L275.774 50.7081C275.999 51.8089 276.543 52.6494 277.407 53.2294C278.271 53.7976 279.378 54.0817 280.728 54.0817C282.053 54.0817 283.119 53.8272 283.924 53.3182C284.74 52.7973 285.155 52.1286 285.167 51.3118C285.155 50.6252 284.865 50.063 284.296 49.625C283.728 49.1752 282.852 48.8319 281.669 48.5952L276.946 47.6541C274.282 47.1214 272.3 46.1982 270.997 44.8842C269.707 43.5703 269.062 41.8954 269.062 39.8594C269.062 38.1075 269.536 36.5982 270.483 35.3317C271.441 34.0651 272.785 33.0885 274.513 32.402C276.253 31.7154 278.289 31.3722 280.621 31.3722C284.066 31.3722 286.776 32.1001 288.753 33.5561C290.742 35.0121 291.902 36.9948 292.233 39.5043ZM309.274 31.7273V37.4091H292.85V31.7273H309.274ZM296.579 25.1932H304.143V50.6193C304.143 51.3177 304.249 51.8622 304.462 52.2528C304.675 52.6316 304.971 52.898 305.35 53.0518C305.741 53.2057 306.191 53.2827 306.7 53.2827C307.055 53.2827 307.41 53.2531 307.765 53.1939C308.12 53.1229 308.392 53.0696 308.582 53.0341L309.771 58.6626C309.392 58.781 308.86 58.9171 308.173 59.071C307.487 59.2367 306.652 59.3374 305.67 59.3729C303.847 59.4439 302.249 59.2012 300.876 58.6449C299.514 58.0885 298.455 57.2244 297.697 56.0526C296.94 54.8807 296.567 53.401 296.579 51.6136V25.1932Z" fill="black"/>
<path fill-rule="evenodd" clip-rule="evenodd" d="M41 1.15314C18.3563 1.15314 0 19.5095 0 42.1531V67.1989C0 76.8472 10.4837 82.8433 18.7999 77.9515C22.5796 75.7282 27.249 75.6526 31.0986 77.7524L33.0999 78.844C38.0242 81.5299 43.9758 81.5299 48.9 78.844L50.9014 77.7523C54.751 75.6526 59.4204 75.7282 63.2 77.9515C71.5163 82.8433 82 76.8472 82 67.1989V42.1531C82 19.5093 63.6436 1.15314 41 1.15314ZM8.7857 42.1531C8.7857 24.3617 23.2086 9.93884 41 9.93884C58.7914 9.93884 73.2143 24.3614 73.2143 42.1531V63.6691C73.2143 70.027 65.6688 73.3649 60.9642 69.0881C58.6554 66.9892 55.2702 66.5836 52.5309 68.0778L47.9882 70.5556C43.6323 72.9316 38.3677 72.9316 34.0118 70.5556L29.4691 68.0778C26.7298 66.5836 23.3446 66.9892 21.0357 69.0881C16.3312 73.3649 8.7857 70.027 8.7857 63.6691V42.1531Z" fill="black"/>
<path fill-rule="evenodd" clip-rule="evenodd" d="M34.5937 35.7469C34.5937 38.5773 32.2992 40.8719 29.4687 40.8719C26.6383 40.8719 24.3437 38.5773 24.3437 35.7469C24.3437 32.9164 26.6383 30.6219 29.4687 30.6219C32.2992 30.6219 34.5937 32.9164 34.5937 35.7469ZM52.5312 40.8719C55.3617 40.8719 57.6562 38.5773 57.6562 35.7469C57.6562 32.9164 55.3617 30.6219 52.5312 30.6219C49.7007 30.6219 47.4062 32.9164 47.4062 35.7469C47.4062 38.5773 49.7007 40.8719 52.5312 40.8719Z" fill="black"/>
</svg>
