<?xml version="1.0" standalone="no"?>
<!DOCTYPE svg PUBLIC "-//W3C//DTD SVG 20010904//EN"
 "http://www.w3.org/TR/2001/REC-SVG-20010904/DTD/svg10.dtd">
<svg version="1.0" xmlns="http://www.w3.org/2000/svg"
 width="1000.000000pt" height="1000.000000pt" viewBox="0 0 1000.000000 1000.000000"
 preserveAspectRatio="xMidYMid meet">
<g transform="translate(0.000000,1000.000000) scale(0.100000,-0.100000)"
fill="#000000" stroke="none">
<path d="M4747 9243 c-2 -1 -36 -5 -77 -8 -106 -7 -194 -17 -320 -36 -41 -6
-88 -13 -105 -15 -16 -2 -41 -7 -55 -10 -14 -4 -37 -8 -51 -10 -15 -2 -82 -17
-150 -34 -68 -17 -135 -34 -148 -36 -52 -11 -343 -108 -461 -155 -150 -60
-450 -206 -575 -279 -210 -124 -475 -311 -630 -445 -189 -163 -354 -329 -500
-499 -27 -33 -55 -64 -60 -70 -6 -6 -31 -38 -55 -71 -25 -33 -47 -62 -50 -65
-13 -12 -112 -153 -182 -260 -112 -172 -189 -312 -316 -580 -96 -200 -211
-546 -279 -835 -12 -52 -52 -276 -58 -324 -4 -30 -8 -61 -10 -70 -1 -9 -6 -45
-10 -81 -3 -36 -9 -83 -12 -105 -4 -22 -8 -742 -9 -1600 -3 -1691 -5 -1623 51
-1820 112 -389 435 -730 825 -870 349 -124 746 -98 1055 71 146 79 218 114
280 136 249 90 508 106 755 47 158 -37 252 -76 449 -186 276 -154 483 -227
736 -260 93 -12 381 -8 465 6 109 19 106 19 190 40 156 41 305 106 530 230
267 148 461 203 710 202 159 0 244 -12 385 -53 107 -31 155 -53 365 -165 104
-55 269 -112 375 -127 23 -4 52 -9 65 -12 36 -7 233 -7 310 1 86 8 245 48 339
86 177 70 317 163 456 303 188 189 305 406 362 676 17 80 18 179 18 1620 0
1354 -4 1725 -20 1772 -2 7 -6 40 -9 72 -5 56 -8 74 -21 151 -3 17 -8 46 -11
65 -10 67 -55 275 -71 329 -8 29 -16 59 -17 65 -11 52 -91 298 -131 403 -250
644 -616 1184 -1131 1664 -40 37 -147 127 -269 227 -122 100 -354 254 -565
374 -167 95 -523 255 -665 297 -22 7 -49 16 -60 21 -43 19 -310 97 -363 106
-15 3 -45 10 -67 16 -22 5 -51 12 -65 14 -14 3 -47 9 -75 14 -27 5 -63 12 -80
14 -33 6 -79 14 -110 20 -11 2 -51 7 -90 11 -38 4 -83 9 -100 11 -89 12 -205
16 -433 18 -139 1 -254 1 -255 -1z m548 -944 c542 -56 1011 -206 1429 -456 49
-29 90 -53 92 -53 2 0 90 -59 169 -114 266 -186 597 -516 801 -801 246 -342
431 -742 535 -1155 33 -133 33 -131 44 -200 4 -25 9 -54 11 -65 8 -41 13 -71
19 -125 3 -30 8 -66 10 -80 15 -101 18 -363 20 -1460 1 -1310 0 -1326 -45
-1460 -35 -106 -136 -258 -203 -308 -10 -8 -25 -22 -35 -31 -27 -28 -127 -88
-189 -115 -51 -21 -88 -33 -168 -53 -47 -12 -234 -10 -294 3 -139 30 -269 97
-387 202 -141 125 -330 191 -530 187 -174 -5 -275 -44 -639 -250 -115 -65
-348 -185 -359 -185 -3 0 -17 -5 -33 -12 -41 -16 -38 -15 -161 -48 -62 -16
-130 -32 -150 -35 -68 -11 -366 -14 -427 -4 -33 5 -74 11 -91 13 -46 7 -150
34 -219 58 -113 38 -201 83 -665 336 -25 13 -49 27 -55 31 -24 17 -138 61
-202 77 -71 18 -226 24 -298 11 -84 -14 -102 -19 -165 -44 -84 -33 -145 -71
-253 -159 -97 -79 -219 -144 -317 -170 -87 -23 -256 -27 -344 -8 -338 72 -573
322 -624 664 -4 30 -7 624 -6 1320 1 1196 4 1386 30 1530 2 14 7 45 10 70 11
85 63 320 94 422 17 57 32 110 34 118 22 90 224 542 288 645 7 11 25 39 41 63
15 24 27 45 27 47 0 4 76 116 128 190 133 185 347 419 527 574 240 208 464
356 745 494 384 187 761 294 1175 332 44 4 82 9 84 11 7 7 469 1 546 -7z"/>
<path d="M3670 6102 c-50 -7 -146 -46 -195 -78 -105 -68 -186 -174 -226 -292
-35 -102 -33 -252 4 -348 63 -163 172 -273 332 -334 86 -32 246 -37 330 -9 33
11 65 21 71 22 7 2 41 22 77 45 202 131 293 375 227 612 -49 179 -221 338
-407 379 -42 9 -165 11 -213 3z"/>
<path d="M6097 6095 c-210 -52 -373 -225 -413 -437 -19 -103 6 -251 58 -352
42 -79 146 -182 224 -222 324 -166 708 10 790 363 9 39 10 181 2 223 -42 210
-201 372 -418 428 -55 14 -179 12 -243 -3z"/>
</g>
</svg>
