<svg width="100%" height="100%" viewBox="0 0 16 16" style="color:currentColor">
<g clip-path="url(#clip0_29_2)">
<path fill-rule="evenodd" clip-rule="evenodd" d="M7.99999 0.224976C3.58172 0.224976 0 3.8067 0 8.22497V13.112C0 14.9945 2.04561 16.1645 3.66828 15.21C4.40577 14.7762 5.31687 14.7615 6.06802 15.1712L6.45852 15.3842C7.41935 15.9082 8.58064 15.9083 9.54147 15.3842L9.93198 15.1712C10.6831 14.7614 11.5942 14.7762 12.3317 15.21C13.9544 16.1645 16 14.9945 16 13.1119V8.22497C16 3.80667 12.4183 0.224976 7.99999 0.224976ZM1.71428 8.22497C1.71428 4.75347 4.5285 1.93926 7.99999 1.93926C11.4715 1.93926 14.2857 4.75342 14.2857 8.22497V12.4232C14.2857 13.6638 12.8134 14.3151 11.8955 13.4806C11.445 13.071 10.7844 12.9919 10.2499 13.2834L9.36354 13.7669C8.51362 14.2305 7.48637 14.2305 6.63645 13.7669L5.75007 13.2834C5.21557 12.9919 4.55504 13.071 4.10453 13.4806C3.18658 14.3151 1.71428 13.6638 1.71428 12.4232V8.22497Z" fill="currentColor"/>
<path fill-rule="evenodd" clip-rule="evenodd" d="M6.75 6.97497C6.75 7.52725 6.30228 7.97497 5.75 7.97497C5.19772 7.97497 4.75 7.52725 4.75 6.97497C4.75 6.42269 5.19772 5.97497 5.75 5.97497C6.30228 5.97497 6.75 6.42269 6.75 6.97497ZM10.25 7.97497C10.8023 7.97497 11.25 7.52725 11.25 6.97497C11.25 6.42269 10.8023 5.97497 10.25 5.97497C9.6977 5.97497 9.24999 6.42269 9.24999 6.97497C9.24999 7.52725 9.6977 7.97497 10.25 7.97497Z" fill="currentColor"/>
</g>
</svg>
